<?xml version="1.0" standalone="no"?>
<!DOCTYPE svg PUBLIC "-//W3C//DTD SVG 20010904//EN"
 "http://www.w3.org/TR/2001/REC-SVG-20010904/DTD/svg10.dtd">
<svg version="1.0" xmlns="http://www.w3.org/2000/svg"
 width="792.000000pt" height="792.000000pt" viewBox="0 0 792.000000 792.000000"
 preserveAspectRatio="xMidYMid meet">
<metadata>
Created by potrace 1.11, written by Peter Selinger 2001-2013
</metadata>
<g transform="translate(0.000000,792.000000) scale(0.100000,-0.100000)"
fill="#000000" stroke="none">
<path d="M685 7674 c-11 -2 -44 -9 -73 -15 -134 -27 -266 -105 -384 -225 -84
-87 -134 -160 -171 -251 -55 -136 -52 16 -52 -2463 0 -2480 -3 -2327 52 -2464
72 -177 262 -368 435 -437 118 -47 145 -51 404 -58 l252 -6 -234 -685 c-154
-452 -234 -699 -234 -726 0 -52 23 -74 78 -74 39 0 101 44 1059 743 l1018 742
2220 5 c2002 5 2225 7 2270 21 161 52 256 111 371 230 126 131 189 255 214
418 7 43 10 851 8 2336 -4 2474 1 2279 -57 2423 -68 171 -262 365 -432 433
-146 58 151 54 -3439 55 -1807 1 -3294 0 -3305 -2z m1090 -155 c-466 -45 -794
-132 -984 -262 -68 -46 -179 -155 -226 -222 -190 -267 -272 -633 -345 -1530
-23 -277 -49 -516 -61 -555 -4 -14 -7 430 -6 985 l3 1010 22 75 c86 279 292
458 577 500 27 4 289 7 580 7 358 0 501 -2 440 -8z m1583 -1029 c391 -30 726
-162 1027 -405 282 -228 523 -354 817 -429 174 -45 280 -56 583 -60 223 -2
258 -5 324 -25 312 -93 533 -308 637 -621 26 -80 28 -96 29 -255 0 -191 -9
-237 -75 -381 -116 -251 -320 -426 -591 -505 -63 -18 -113 -22 -344 -29 -293
-9 -422 -26 -615 -79 -280 -78 -491 -189 -746 -392 -202 -161 -374 -256 -594
-330 -649 -217 -1360 -49 -1845 436 -252 253 -420 566 -497 930 -20 98 -23
137 -23 345 1 206 4 248 23 340 106 489 377 891 786 1164 249 166 554 273 846
295 58 5 110 9 115 10 6 0 70 -4 143 -9z m4410 -3280 c-4 -710 -4 -715 -27
-790 -75 -247 -234 -406 -481 -482 l-75 -22 -904 -4 c-792 -2 -903 -1 -892 12
7 8 44 20 84 26 40 6 88 15 107 20 19 5 107 16 195 25 88 8 180 20 205 25 25
5 72 12 105 15 202 20 537 87 695 137 517 165 731 454 879 1183 31 156 96 625
103 753 6 106 8 -262 6 -898z m-5028 -1314 c-11 -10 -1626 -1187 -1700 -1239
-30 -21 129 133 699 679 l584 559 96 6 c53 3 150 6 216 7 102 2 117 0 105 -12z"/>
<path d="M3060 6319 c-533 -59 -1025 -402 -1274 -888 -238 -465 -245 -979 -21
-1448 229 -480 672 -814 1205 -910 115 -20 399 -23 510 -5 316 52 558 162 823
374 244 194 427 295 703 389 232 78 436 109 747 115 168 2 246 8 295 20 264
65 469 266 544 531 31 109 31 277 0 386 -77 272 -291 475 -568 537 -27 7 -166
13 -309 14 -274 3 -330 10 -539 62 -332 84 -594 215 -861 432 -379 309 -805
441 -1255 391z m196 -1404 c175 -109 175 -341 -1 -450 -43 -27 -57 -30 -124
-30 -59 0 -85 5 -117 22 -93 50 -146 134 -146 233 0 102 53 189 145 235 45 23
62 26 123 23 58 -3 80 -9 120 -33z"/>
</g>
</svg>
